<svg xmlns="http://www.w3.org/2000/svg" viewBox="0 0 64 64"><g id="_19-Star" data-name="19-Star"><rect x="1" y="51" width="58" height="4" style="fill:#d6e0eb"/><polygon points="1 55 1 51 59 51 59 53 6 53 6 54 59 54 59 55 1 55" style="fill:#8394b2"/><rect x="1" y="15" width="58" height="36" style="fill:#fbfbfb"/><path d="M1,15V51H59V45H34C19.088,45,7,33.912,7,19V15Z" style="fill:#d6e0eb"/><path d="M1,4V15H59V4Zm12,7H5V7h8Zm14,0H19V7h8Zm14,0H33V7h8Zm14,0H47V7h8Z" style="fill:#e63b47"/><path d="M8,1h2a1,1,0,0,1,1,1V8a0,0,0,0,1,0,0H7A0,0,0,0,1,7,8V2A1,1,0,0,1,8,1Z" style="fill:#d6e0eb"/><path d="M10,6H9A1,1,0,0,1,8,5V2A1,1,0,0,1,9,1H8A1,1,0,0,0,7,2V8h4V5A1,1,0,0,1,10,6Z" style="fill:#a8b7d4"/><path d="M22,1h2a1,1,0,0,1,1,1V8a0,0,0,0,1,0,0H21a0,0,0,0,1,0,0V2A1,1,0,0,1,22,1Z" style="fill:#d6e0eb"/><path d="M24,6H23a1,1,0,0,1-1-1V2a1,1,0,0,1,1-1H22a1,1,0,0,0-1,1V8h4V5A1,1,0,0,1,24,6Z" style="fill:#a8b7d4"/><path d="M36,1h2a1,1,0,0,1,1,1V8a0,0,0,0,1,0,0H35a0,0,0,0,1,0,0V2A1,1,0,0,1,36,1Z" style="fill:#d6e0eb"/><path d="M38,6H37a1,1,0,0,1-1-1V2a1,1,0,0,1,1-1H36a1,1,0,0,0-1,1V8h4V5A1,1,0,0,1,38,6Z" style="fill:#a8b7d4"/><path d="M50,1h2a1,1,0,0,1,1,1V8a0,0,0,0,1,0,0H49a0,0,0,0,1,0,0V2A1,1,0,0,1,50,1Z" style="fill:#d6e0eb"/><path d="M52,6H51a1,1,0,0,1-1-1V2a1,1,0,0,1,1-1H50a1,1,0,0,0-1,1V8h4V5A1,1,0,0,1,52,6Z" style="fill:#a8b7d4"/><rect x="9" y="19" width="6" height="6" style="fill:#a8b7d4"/><rect x="21" y="19" width="6" height="6" style="fill:#a8b7d4"/><rect x="33" y="19" width="6" height="6" style="fill:#a8b7d4"/><rect x="45" y="19" width="6" height="6" style="fill:#a8b7d4"/><rect x="9" y="30" width="6" height="6" style="fill:#a8b7d4"/><rect x="21" y="30" width="6" height="6" style="fill:#a8b7d4"/><rect x="33" y="30" width="6" height="6" style="fill:#a8b7d4"/><rect x="21" y="41" width="6" height="6" style="fill:#a8b7d4"/><rect x="9" y="40" width="6" height="6" style="fill:#8394b2"/><rect x="45" y="30" width="6" height="6" style="fill:#a8b7d4"/><path d="M9,36h4.377a25.157,25.157,0,0,1-3.954-6H9Z" style="fill:#8394b2"/><path d="M27,47V44.149A27.6,27.6,0,0,1,21,41.9V47Z" style="fill:#8394b2"/><rect x="9" y="40" width="6" height="6" style="fill:#8394b2"/><rect x="33" y="41" width="6" height="6" style="fill:#a8b7d4"/><path d="M39,47V45H34c-.335,0-.668-.012-1-.023V47Z" style="fill:#8394b2"/><circle cx="49" cy="49" r="14" style="fill:#4aa4f2"/><path d="M39,43a13.971,13.971,0,0,1,.748-4.488,13.991,13.991,0,1,0,22.5,14.976A13.984,13.984,0,0,1,39,43Z" style="fill:#4077de"/><polygon points="49 40 51.527 45.267 57.176 46.111 53.088 50.211 54.053 56 49 53.267 43.947 56 44.912 50.211 40.824 46.111 46.473 45.267 49 40" style="fill:#e9dd55"/><path d="M45.806,54.994a14.03,14.03,0,0,1-1.517-1.046L43.947,56Z" style="fill:#e39b1e"/><path d="M2,44H0V55a1,1,0,0,0,1,1H32V54H2V52H32V50H2Z"/><rect x="58" y="33" width="2" height="2"/><path d="M2,16H58V31h2V4a1,1,0,0,0-1-1H56V5h2v9H2V5H4V3H1A1,1,0,0,0,0,4V42H2Z"/><path d="M4,11a1,1,0,0,0,1,1h8a1,1,0,0,0,1-1V7a1,1,0,0,0-1-1H12V5h8V6H19a1,1,0,0,0-1,1v4a1,1,0,0,0,1,1h8a1,1,0,0,0,1-1V7a1,1,0,0,0-1-1H26V5h8V6H33a1,1,0,0,0-1,1v4a1,1,0,0,0,1,1h8a1,1,0,0,0,1-1V7a1,1,0,0,0-1-1H40V5h8V6H47a1,1,0,0,0-1,1v4a1,1,0,0,0,1,1h8a1,1,0,0,0,1-1V7a1,1,0,0,0-1-1H54V2a2,2,0,0,0-2-2H50a2,2,0,0,0-2,2V3H40V2a2,2,0,0,0-2-2H36a2,2,0,0,0-2,2V3H26V2a2,2,0,0,0-2-2H22a2,2,0,0,0-2,2V3H12V2a2,2,0,0,0-2-2H8A2,2,0,0,0,6,2V6H5A1,1,0,0,0,4,7ZM53,9a1,1,0,0,0,1-1v2H48V8a1,1,0,0,0,1,1ZM50,2h2V7H50ZM39,9a1,1,0,0,0,1-1v2H34V8a1,1,0,0,0,1,1ZM36,2h2V7H36ZM25,9a1,1,0,0,0,1-1v2H20V8a1,1,0,0,0,1,1ZM22,2h2V7H22ZM8,2h2V7H8ZM6,8A1,1,0,0,0,7,9h4a1,1,0,0,0,1-1v2H6Z"/><path d="M16,19a1,1,0,0,0-1-1H9a1,1,0,0,0-1,1v6a1,1,0,0,0,1,1h6a1,1,0,0,0,1-1Zm-2,5H10V20h4Z"/><path d="M28,19a1,1,0,0,0-1-1H21a1,1,0,0,0-1,1v6a1,1,0,0,0,1,1h6a1,1,0,0,0,1-1Zm-2,5H22V20h4Z"/><path d="M33,18a1,1,0,0,0-1,1v6a1,1,0,0,0,1,1h6a1,1,0,0,0,1-1V19a1,1,0,0,0-1-1Zm5,6H34V20h4Z"/><path d="M52,19a1,1,0,0,0-1-1H45a1,1,0,0,0-1,1v6a1,1,0,0,0,1,1h6a1,1,0,0,0,1-1Zm-2,5H46V20h4Z"/><path d="M16,30a1,1,0,0,0-1-1H9a1,1,0,0,0-1,1v6a1,1,0,0,0,1,1h6a1,1,0,0,0,1-1Zm-2,5H10V31h4Z"/><path d="M28,30a1,1,0,0,0-1-1H21a1,1,0,0,0-1,1v6a1,1,0,0,0,1,1h6a1,1,0,0,0,1-1Zm-2,5H22V31h4Z"/><path d="M40,36V30a1,1,0,0,0-1-1H33a1,1,0,0,0-1,1v6a1,1,0,0,0,1,1h6A1,1,0,0,0,40,36Zm-2-1H34V31h4Z"/><path d="M52,33V30a1,1,0,0,0-1-1H45a1,1,0,0,0-1,1v3h2V31h4v2Z"/><path d="M15,40H9a1,1,0,0,0-1,1v6a1,1,0,0,0,1,1h6a1,1,0,0,0,1-1V41A1,1,0,0,0,15,40Zm-1,6H10V42h4Z"/><path d="M27,40H21a1,1,0,0,0-1,1v6a1,1,0,0,0,1,1h6a1,1,0,0,0,1-1V41A1,1,0,0,0,27,40Zm-1,6H22V42h4Z"/><path d="M49,34A15,15,0,1,0,64,49,15.017,15.017,0,0,0,49,34Zm0,28A13,13,0,1,1,62,49,13.015,13.015,0,0,1,49,62Z"/><path d="M57.324,45.122,52.2,44.356l-2.3-4.789a1.043,1.043,0,0,0-1.8,0l-2.3,4.789-5.125.766a1,1,0,0,0-.56,1.7l3.725,3.737-.881,5.282a1,1,0,0,0,1.462,1.044L49,54.4l4.578,2.477a1,1,0,0,0,.475.12,1,1,0,0,0,.987-1.164l-.881-5.282,3.725-3.737a1,1,0,0,0-.56-1.7ZM52.38,49.505a1,1,0,0,0-.278.87l.628,3.772-3.254-1.76a1,1,0,0,0-.952,0l-3.254,1.76.628-3.772a1,1,0,0,0-.278-.87l-2.69-2.7,3.692-.552a1,1,0,0,0,.753-.557L49,42.312,50.625,45.7a1,1,0,0,0,.753.557l3.692.552Z"/></g></svg>