<svg width="24" height="24" viewBox="0 0 24 24" fill="none" xmlns="http://www.w3.org/2000/svg">
<g clip-path="url(#clip0)">
<path fill-rule="evenodd" clip-rule="evenodd" d="M21.7071 7.29292C22.0976 7.68345 22.0976 8.31661 21.7071 8.70714L8.70711 21.7071C8.51957 21.8947 8.26522 22 8 22L4 22C3.73478 22 3.48043 21.8947 3.29289 21.7071C3.10535 21.5196 3 21.2652 3 21L3 17C3 16.7348 3.10536 16.4805 3.29289 16.2929L16.2929 3.29292C16.6834 2.9024 17.3166 2.9024 17.7071 3.29292C18.0976 3.68345 18.0976 4.31661 17.7071 4.70714L5 17.4142L5 20L7.58579 20L20.2929 7.29292C20.6834 6.9024 21.3166 6.9024 21.7071 7.29292Z" fill="black"/>
<path fill-rule="evenodd" clip-rule="evenodd" d="M16.2929 3.29292C16.6834 2.9024 17.3166 2.9024 17.7071 3.29292L21.7071 7.29292C22.0976 7.68345 22.0976 8.31661 21.7071 8.70714C21.3166 9.09766 20.6834 9.09766 20.2929 8.70714L16.2929 4.70714C15.9024 4.31661 15.9024 3.68345 16.2929 3.29292Z" fill="black"/>
<path fill-rule="evenodd" clip-rule="evenodd" d="M17.2928 11.7071L13.2928 7.70712L14.707 6.29291L18.707 10.2929L17.2928 11.7071Z" fill="black"/>
</g>
<defs>
<clipPath id="clip0">
<rect width="24" height="24" fill="white"/>
</clipPath>
</defs>
</svg>
