<?xml version="1.0" encoding="utf-8"?>
<!-- Generator: Adobe Illustrator 21.0.0, SVG Export Plug-In . SVG Version: 6.00 Build 0)  -->
<svg version="1.1" id="Layer_1" xmlns="http://www.w3.org/2000/svg" xmlns:xlink="http://www.w3.org/1999/xlink" x="0px" y="0px"
	 viewBox="0 0 256 256" style="enable-background:new 0 0 256 256;" xml:space="preserve">
<style type="text/css">
	.st0{fill:#F9D0B4;}
	.st1{fill:#E9E9EA;}
	.st2{fill:#6D6C6B;}
	.st3{fill:#6DCC6D;}
	.st4{fill:#FFCD29;}
	.st5{fill:#55ACD5;}
	.st6{fill:#EA4647;}
	.st7{fill:#231F20;}
</style>
<g id="Layer_31">
	<path class="st0" d="M65.6,125.4c-0.4,0-0.8,0-1.2,0.1c0,0.4,0,0.8,0,1.3v12.9c0,0.4,0,0.8,0,1.3c4.2,0.7,8.2-2.2,8.9-6.4
		c0.7-4.2-2.2-8.2-6.4-8.9C66.4,125.4,66,125.4,65.6,125.4L65.6,125.4z"/>
	<path class="st0" d="M27.1,126.8c0-0.4,0-0.8,0-1.3c-4.2-0.7-8.3,2.1-9,6.4c-0.7,4.2,2.1,8.3,6.4,9c0.9,0.1,1.7,0.1,2.6,0
		c0-0.4,0-0.8,0-1.3L27.1,126.8z"/>
	<path class="st0" d="M64.4,122.7c0-0.5-0.4-1-1-1c-7.7-0.2-11.8-3.3-13.4-4.8c-0.4-0.4-1-0.4-1.4,0c0,0-0.1,0.1-0.1,0.1
		c-6.8,8.6-16.9,7.4-20.2,6.7c-0.5-0.1-1.1,0.2-1.2,0.8c0,0.1,0,0.1,0,0.2v15c0,10.3,8.3,18.6,18.6,18.6s18.7-8.3,18.7-18.6V123
		C64.4,122.9,64.4,122.8,64.4,122.7z"/>
	<path class="st0" d="M45.7,158.3c-2.9,0-5.7-0.7-8.3-2v6.9l2.9,8.4c0.2,0.5,0.6,0.8,1.2,0.8h9c0.5,0,1-0.3,1.2-0.8l2.9-8.4V156
		C51.9,157.5,48.8,158.3,45.7,158.3z"/>
	<path class="st0" d="M229.6,125.4c-0.4,0-0.8,0-1.2,0.1c0,0.4,0,0.8,0,1.3v12.9c0,0.4,0,0.8,0,1.3c4.2,0.7,8.2-2.2,8.9-6.4
		c0.7-4.2-2.2-8.2-6.4-8.9C230.4,125.4,230,125.4,229.6,125.4L229.6,125.4z"/>
	<path class="st0" d="M191.1,126.8c0-0.4,0-0.8,0-1.3c-4.2-0.7-8.3,2.1-9,6.4c-0.7,4.2,2.1,8.3,6.4,9c0.9,0.1,1.7,0.1,2.6,0
		c0-0.4,0-0.8,0-1.3L191.1,126.8z"/>
	<path class="st0" d="M228.4,122.7c0-0.5-0.4-1-1-1c-7.7-0.2-11.8-3.3-13.4-4.8c-0.4-0.4-1-0.4-1.4,0c0,0-0.1,0.1-0.1,0.1
		c-6.8,8.6-16.9,7.4-20.2,6.7c-0.5-0.1-1.1,0.2-1.2,0.8c0,0.1,0,0.1,0,0.2v15c0,10.3,8.3,18.7,18.7,18.7c10.3,0,18.6-8.3,18.6-18.7
		V123C228.4,122.9,228.4,122.8,228.4,122.7z"/>
	<path class="st0" d="M209.7,158.3c-2.9,0-5.7-0.7-8.3-2v6.9l2.9,8.4c0.2,0.5,0.6,0.8,1.2,0.8h9c0.5,0,1-0.3,1.2-0.8l2.9-8.4V156
		C215.9,157.5,212.8,158.3,209.7,158.3z"/>
	<path class="st0" d="M153.4,125.9c-0.5,0-1.1,0-1.6,0.1c0,0.5,0.1,1.1,0.1,1.6v16.7c0,0.5,0,1.1-0.1,1.6c5.5,0.9,10.7-2.8,11.6-8.3
		c0.9-5.5-2.8-10.7-8.3-11.6C154.5,125.9,153.9,125.9,153.4,125.9L153.4,125.9z"/>
	<path class="st0" d="M103.5,127.6c0-0.5,0-1.1,0.1-1.6c-5.5-0.9-10.7,2.8-11.6,8.3s2.8,10.7,8.3,11.6c1.1,0.2,2.3,0.2,3.4,0
		c0-0.5-0.1-1.1-0.1-1.6L103.5,127.6z"/>
	<path class="st0" d="M151.8,122.4c0-0.7-0.6-1.2-1.2-1.3c-10-0.3-15.3-4.3-17.4-6.3c-0.5-0.5-1.3-0.5-1.8,0c0,0-0.1,0.1-0.1,0.1
		c-8.8,11.1-21.9,9.5-26.2,8.6c-0.7-0.1-1.4,0.3-1.5,1c0,0.1,0,0.2,0,0.3v19.5c0,13.4,10.8,24.2,24.2,24.2
		c13.3,0,24.2-10.8,24.2-24.2v-21.5C151.8,122.6,151.8,122.5,151.8,122.4z"/>
	<path class="st0" d="M127.6,168.5c-3.7,0-7.4-0.9-10.8-2.6v8.9l3.8,10.9c0.2,0.6,0.8,1.1,1.5,1.1h11.7c0.7,0,1.3-0.4,1.5-1.1
		l3.8-10.9v-9.3C135.6,167.5,131.7,168.5,127.6,168.5z"/>
	<path class="st1" d="M179.4,246.9l-3-53.1c-0.2-4.2-3.1-7.7-7.2-8.7l-18.8-4.7l-11.3-5.6l-3.8,10.9c-0.2,0.6-0.8,1.1-1.5,1.1h-11.7
		c-0.7,0-1.3-0.4-1.5-1.1l-3.8-10.9l-11.3,5.6l-18.8,4.7c-4.1,1-7,4.6-7.2,8.7l-3,53.1c-0.2,3.4,2.4,6.4,5.9,6.6c0.1,0,0.2,0,0.3,0
		h90.3c3.4,0,6.2-2.8,6.2-6.2C179.4,247.2,179.4,247.1,179.4,246.9z"/>
	<path class="st1" d="M83.3,177.9c-0.2-3.2-2.4-5.9-5.6-6.7l-14.5-3.6l-8.7-4.3l-2.9,8.4c-0.2,0.5-0.6,0.8-1.2,0.8h-9
		c-0.5,0-1-0.3-1.2-0.8l-2.9-8.4l-8.7,4.3l-14.5,3.6c-3.1,0.8-5.4,3.5-5.6,6.7l-2.2,40.2c-0.2,3,2.1,5.6,5.2,5.8c0.1,0,0.2,0,0.3,0
		h66.1l1.7-30c0.2-3,1.7-5.7,4.2-7.4L83.3,177.9z"/>
	<path class="st1" d="M249.6,218.1l-2.2-40.2c-0.2-3.2-2.4-5.9-5.6-6.7l-14.5-3.6l-8.7-4.3l-2.9,8.4c-0.2,0.5-0.6,0.8-1.2,0.8h-9
		c-0.5,0-1-0.3-1.2-0.8l-2.9-8.4l-8.7,4.3l-14.5,3.6c-3.1,0.8-5.4,3.5-5.6,6.7l-0.5,8.6c2.5,1.7,4,4.4,4.2,7.4l1.7,30h66.1
		c3,0,5.5-2.4,5.5-5.5C249.6,218.3,249.6,218.2,249.6,218.1z"/>
	<path class="st2" d="M60.3,102.9c-1.9,0-3.8,0.5-5.4,1.5c-1.9-3.2-5.4-5.2-9.1-5.2h-5.5c-10.6,0-19.2,8.6-19.2,19.2v8.6
		c1.7-1.4,3.9-2,6.1-1.6v-0.9c0-0.6,0.5-1,1-1c0.1,0,0.1,0,0.2,0c3.4,0.7,13.4,1.9,20.2-6.7c0.3-0.4,1-0.5,1.4-0.2
		c0,0,0.1,0.1,0.1,0.1c1.6,1.5,5.7,4.6,13.4,4.8c0.5,0,1,0.4,1,1c0,0.1,0,0.2,0,0.3v2.5c2.4-0.4,4.9,0.4,6.6,2.1v-14
		C70.9,107.7,66.2,103,60.3,102.9z"/>
	<path class="st2" d="M224.3,102.9c-1.9,0-3.8,0.5-5.4,1.5c-1.9-3.2-5.4-5.2-9.1-5.2h-5.5c-10.6,0-19.2,8.6-19.2,19.2v8.6
		c1.7-1.4,3.9-2,6.1-1.6v-0.9c0-0.6,0.5-1,1-1c0.1,0,0.1,0,0.2,0c3.4,0.7,13.4,1.9,20.2-6.7c0.3-0.4,1-0.5,1.4-0.2
		c0,0,0.1,0.1,0.1,0.1c1.6,1.5,5.7,4.6,13.4,4.8c0.5,0,1,0.4,1,1c0,0.1,0,0.2,0,0.3v2.5c2.4-0.4,4.9,0.4,6.6,2.1v-14
		C235,107.7,230.2,103,224.3,102.9z"/>
	<path class="st2" d="M146.6,96.7c-2.5,0-4.9,0.7-7.1,2c-2.5-4.2-7-6.7-11.8-6.8h-7.1c-13.8,0-24.9,11.2-25,25v11.2
		c2.2-1.8,5.1-2.5,7.8-2.1v-1.2c0-0.7,0.6-1.3,1.3-1.3c0.1,0,0.2,0,0.3,0c4.4,0.9,17.4,2.5,26.2-8.6c0.4-0.6,1.3-0.7,1.8-0.2
		c0,0,0.1,0.1,0.1,0.1c2,2,7.3,6,17.4,6.3c0.7,0,1.2,0.6,1.2,1.3c0,0.1,0,0.3,0,0.4v3.2c3.1-0.5,6.3,0.5,8.6,2.7v-18.2
		C160.4,102.9,154.2,96.7,146.6,96.7z"/>
	<path class="st3" d="M162.1,2.5H93.9c-9.2,0-16.6,7.5-16.6,16.6v29.1c0,9.2,7.5,16.6,16.6,16.6h17.6c2,0,4,1,5.1,2.7l9.9,15.1
		c0.5,0.8,1.6,1,2.4,0.5c0.2-0.1,0.4-0.3,0.5-0.5l9.9-15.1c1.1-1.7,3-2.7,5.1-2.7h17.6c9.2,0,16.6-7.5,16.6-16.6V19.1
		C178.7,10,171.3,2.5,162.1,2.5z"/>
	<path class="st4" d="M234.9,32.7h-49.8c-2.3,0-4.5,0.6-6.4,1.9v13.6c0,4.8-2.1,9.4-5.7,12.5v5.4c0,6.7,5.4,12.1,12.1,12.2H198
		c1.5,0,2.9,0.8,3.7,2l7.3,11c0.4,0.6,1.2,0.7,1.8,0.4c0.1-0.1,0.3-0.2,0.4-0.4l7.3-11c0.8-1.2,2.2-2,3.7-2h12.9
		c6.7,0,12.1-5.4,12.1-12.2V44.9C247,38.2,241.6,32.8,234.9,32.7z"/>
	<path class="st5" d="M77.3,48.2V34.6c-1.9-1.2-4.1-1.9-6.4-1.9H21.1C14.4,32.8,9,38.2,9,44.9v21.3c0,6.7,5.4,12.1,12.1,12.2H34
		c1.5,0,2.9,0.8,3.7,2l7.3,11c0.4,0.6,1.2,0.7,1.8,0.4c0.1-0.1,0.3-0.2,0.4-0.4l7.3-11c0.8-1.2,2.2-2,3.7-2h12.9
		c6.7,0,12.1-5.4,12.2-12.2v-5.4C79.4,57.6,77.3,53,77.3,48.2z"/>
	<path class="st4" d="M227.6,2c0-0.2-0.1-0.3-0.1-0.5c-0.1-0.1-0.1-0.3-0.2-0.4c-0.1-0.1-0.2-0.3-0.3-0.4c-1-1-2.5-1-3.5,0
		c0,0,0,0,0,0c-0.1,0.1-0.2,0.2-0.3,0.4c-0.1,0.1-0.2,0.3-0.2,0.4c-0.1,0.1-0.1,0.3-0.1,0.5c0,0.2-0.1,0.3-0.1,0.5
		c0,0.2,0,0.3,0.1,0.5c0,0.2,0.1,0.3,0.1,0.5c0.1,0.2,0.1,0.3,0.2,0.4c0.1,0.1,0.2,0.3,0.3,0.4c1,0.9,2.5,0.9,3.5,0
		c0.1-0.1,0.2-0.2,0.3-0.4c0.1-0.1,0.2-0.3,0.2-0.4c0.1-0.2,0.1-0.3,0.1-0.5c0-0.2,0-0.3,0.1-0.5C227.6,2.3,227.6,2.2,227.6,2z"/>
	<path class="st3" d="M59.6,17.4c-0.1-0.3-0.2-0.6-0.4-0.9c-0.1-0.1-0.2-0.3-0.3-0.4c-1-0.9-2.5-0.9-3.5,0c-0.1,0.1-0.2,0.2-0.3,0.4
		c-0.1,0.1-0.2,0.3-0.2,0.4c-0.1,0.2-0.1,0.3-0.1,0.5c-0.1,0.3-0.1,0.7,0,1c0,0.2,0.1,0.3,0.1,0.5c0.1,0.1,0.1,0.3,0.2,0.4
		c0.1,0.1,0.2,0.3,0.3,0.4c1,1,2.5,1,3.5,0c0,0,0,0,0,0c0.1-0.1,0.2-0.2,0.3-0.4c0.1-0.1,0.2-0.3,0.2-0.4c0.1-0.1,0.1-0.3,0.1-0.5
		C59.6,18.1,59.6,17.7,59.6,17.4z"/>
	<path class="st6" d="M212.4,12.4c-3.8-0.7-6.8-3.7-7.5-7.5c0-0.1-0.1-0.2-0.2-0.1c-0.1,0-0.1,0.1-0.1,0.1c-0.7,3.8-3.7,6.8-7.5,7.5
		c-0.1,0-0.2,0.1-0.1,0.2c0,0.1,0.1,0.1,0.1,0.1c3.8,0.7,6.8,3.7,7.5,7.5c0,0.1,0.1,0.2,0.2,0.1c0.1,0,0.1-0.1,0.1-0.1
		c0.7-3.8,3.7-6.8,7.5-7.5c0.1,0,0.2-0.1,0.1-0.2C212.5,12.5,212.4,12.4,212.4,12.4z"/>
	<path class="st7" d="M65.6,122.9c-0.6,0-1.1,0-1.6,0.1c-1.3,0.2-2.2,1.3-2.1,2.6c0,0.4,0,0.7,0,1.1v12.9c0,0.4,0,0.7,0,1.1
		c-0.1,1.3,0.8,2.4,2.1,2.6c5.6,0.9,10.9-2.9,11.8-8.5c0.9-5.6-2.9-10.9-8.5-11.8C66.7,123,66.1,122.9,65.6,122.9z M66.9,138.3
		v-10.2c2.8,0.7,4.5,3.6,3.8,6.4C70.2,136.4,68.7,137.8,66.9,138.3L66.9,138.3z"/>
	<path class="st7" d="M29.6,126.8c0-0.4,0-0.7,0-1.1c0.1-1.3-0.8-2.4-2.1-2.6c-5.6-0.9-10.9,2.9-11.8,8.5
		c-0.9,5.6,2.9,10.9,8.5,11.8c0.5,0.1,1.1,0.1,1.6,0.1c0.6,0,1.1,0,1.6-0.1c1.3-0.2,2.2-1.3,2.1-2.6c0-0.4,0-0.7,0-1.1L29.6,126.8z
		 M24.6,138.3c-2.8-0.7-4.5-3.6-3.8-6.4c0.5-1.9,1.9-3.3,3.8-3.8V138.3z"/>
	<path class="st7" d="M66.9,122.7c0-1.9-1.5-3.4-3.4-3.4c-7-0.2-10.5-3-11.7-4.1c-1.4-1.4-3.6-1.3-4.9,0c-0.1,0.1-0.2,0.2-0.3,0.3
		c-5.8,7.3-14.4,6.5-17.8,5.8c-1.9-0.4-3.7,0.8-4.1,2.7c0,0.2-0.1,0.5-0.1,0.7v15c0,11.7,9.5,21.1,21.1,21.1s21.2-9.5,21.2-21.1V123
		L66.9,122.7z M61.9,139.6c0,8.9-7.2,16.1-16.2,16.1s-16.1-7.2-16.1-16.1v-13.2c4.4,0.6,13.3,0.6,19.9-6.7c2.2,1.8,6.2,4,12.4,4.4
		V139.6z"/>
	<path class="st7" d="M60.3,100.4c-1.6,0-3.2,0.3-4.7,0.9c-2.5-2.9-6.1-4.5-9.9-4.6h-5.5c-12,0-21.7,9.7-21.8,21.8v8.6
		c0,1.4,1.1,2.5,2.5,2.5c0.6,0,1.1-0.2,1.6-0.5c1.1-0.9,2.6-1.3,4.1-1.1c1.2,0.2,2.3-0.5,2.7-1.6c4.4,0.6,13.3,0.7,20-6.6
		c2.2,1.8,6.2,4,12.4,4.4v1.3c0,1.4,1.1,2.5,2.5,2.5c0.1,0,0.3,0,0.4,0c0.3,0,0.5-0.1,0.8-0.1c1.4,0,2.7,0.5,3.7,1.5
		c1,1,2.6,0.9,3.5-0.1c0.4-0.5,0.7-1.1,0.7-1.7v-14C73.4,106.3,67.6,100.4,60.3,100.4z M68.5,123.3c-0.5-0.2-1.1-0.3-1.6-0.3v-0.3
		c0-1.9-1.5-3.4-3.4-3.4c-7-0.2-10.5-3-11.7-4.1c-1.4-1.4-3.6-1.3-4.9,0c-0.1,0.1-0.2,0.2-0.3,0.3c-5.8,7.3-14.4,6.5-17.8,5.8
		c-1.5-0.3-3.1,0.4-3.8,1.7c-0.5,0-1,0.1-1.5,0.2v-4.7c0-9.2,7.5-16.7,16.8-16.8h5.5c2.9,0,5.5,1.5,7,4c0.7,1.2,2.2,1.6,3.4,0.9
		c0,0,0,0,0,0c3.8-2.3,8.8-1.1,11.1,2.8c0.8,1.3,1.2,2.7,1.2,4.2L68.5,123.3z"/>
	<path class="st7" d="M47.7,180.9c-0.1-0.1-0.2-0.2-0.4-0.3c-0.1-0.1-0.3-0.2-0.4-0.2c-0.2-0.1-0.3-0.1-0.5-0.1
		c-0.3-0.1-0.7-0.1-1,0c-0.2,0-0.3,0.1-0.5,0.1c-0.2,0.1-0.3,0.1-0.4,0.2c-0.1,0.1-0.3,0.2-0.4,0.3c-1,1-1,2.5,0,3.5c0,0,0,0,0,0
		c0.1,0.1,0.2,0.2,0.4,0.3c0.1,0.1,0.3,0.2,0.4,0.2c0.1,0.1,0.3,0.1,0.5,0.1c0.2,0,0.3,0,0.5,0.1c0.2,0,0.3,0,0.5-0.1
		c0.2,0,0.3-0.1,0.5-0.1c0.2-0.1,0.3-0.1,0.4-0.2c0.1-0.1,0.3-0.2,0.4-0.3C48.7,183.5,48.7,181.9,47.7,180.9z"/>
	<path class="st7" d="M48.4,192.2c-0.1-0.3-0.2-0.6-0.4-0.9c-0.1-0.1-0.2-0.3-0.3-0.4c-0.1-0.1-0.2-0.2-0.4-0.3
		c-0.1-0.1-0.3-0.2-0.4-0.2c-0.2-0.1-0.3-0.1-0.5-0.1c-0.3-0.1-0.7-0.1-1,0c-0.2,0-0.3,0.1-0.5,0.1c-0.2,0.1-0.3,0.1-0.4,0.2
		c-0.1,0.1-0.3,0.2-0.4,0.3c-0.1,0.1-0.2,0.2-0.3,0.4c-0.1,0.1-0.2,0.3-0.2,0.4c-0.1,0.2-0.1,0.3-0.1,0.5c-0.1,0.3-0.1,0.7,0,1
		c0,0.2,0.1,0.3,0.1,0.5c0.1,0.1,0.1,0.3,0.2,0.4c0.1,0.1,0.2,0.3,0.3,0.4c0.1,0.1,0.2,0.2,0.4,0.3c0.1,0.1,0.3,0.2,0.4,0.2
		c0.1,0.1,0.3,0.1,0.5,0.1c0.2,0,0.3,0,0.5,0.1c0.2,0,0.3,0,0.5-0.1c0.2,0,0.3-0.1,0.5-0.1c0.1-0.1,0.3-0.1,0.4-0.2
		c0.1-0.1,0.3-0.2,0.4-0.3c0.1-0.1,0.2-0.2,0.3-0.4c0.1-0.1,0.2-0.3,0.2-0.4c0.1-0.2,0.1-0.3,0.1-0.5
		C48.5,192.8,48.5,192.5,48.4,192.2z"/>
	<path class="st7" d="M47.7,200.9c-0.1-0.1-0.2-0.2-0.4-0.3c-0.1-0.1-0.3-0.2-0.4-0.2c-0.2-0.1-0.3-0.1-0.5-0.1
		c-0.5-0.1-1,0-1.4,0.1c-0.1,0.1-0.3,0.1-0.4,0.2c-0.1,0.1-0.3,0.2-0.4,0.3c-1,1-1,2.5,0,3.5c0,0,0,0,0,0c0.1,0.1,0.2,0.2,0.4,0.3
		c0.1,0.1,0.3,0.2,0.4,0.2c0.1,0.1,0.3,0.1,0.5,0.1c0.2,0,0.3,0.1,0.5,0.1c0.2,0,0.3,0,0.5-0.1c0.2,0,0.3-0.1,0.5-0.1
		c0.2-0.1,0.3-0.1,0.4-0.2c0.1-0.1,0.3-0.2,0.4-0.3C48.7,203.4,48.7,201.8,47.7,200.9z"/>
	<path class="st7" d="M47.7,210.8c-1-0.9-2.5-0.9-3.5,0c-1,1-1,2.5,0,3.5c0,0,0,0,0,0c0.1,0.1,0.2,0.2,0.4,0.3
		c0.1,0.1,0.3,0.2,0.4,0.2c0.1,0.1,0.3,0.1,0.5,0.1c0.2,0,0.3,0,0.5,0.1c0.2,0,0.3,0,0.5-0.1c0.2,0,0.3-0.1,0.5-0.1
		c0.2-0.1,0.3-0.1,0.4-0.2c0.1-0.1,0.3-0.2,0.4-0.3C48.7,213.4,48.7,211.8,47.7,210.8z"/>
	<path class="st7" d="M67.8,193.3c-1.4,0-2.5,1.1-2.5,2.5v28.1c0,1.4,1.1,2.5,2.5,2.5s2.5-1.1,2.5-2.5v-28.1
		C70.3,194.4,69.2,193.3,67.8,193.3z"/>
	<path class="st7" d="M23.6,193.3c-1.4,0-2.5,1.1-2.5,2.5v28.1c0,1.4,1.1,2.5,2.5,2.5s2.5-1.1,2.5-2.5v-28.1
		C26.1,194.4,25,193.3,23.6,193.3z"/>
	<path class="st7" d="M55.8,153.9c-0.8-0.5-1.7-0.5-2.5,0c-2.4,1.3-5,1.9-7.7,2c-2.5,0-5-0.6-7.2-1.7c-1.2-0.6-2.7-0.1-3.4,1.1
		c-0.2,0.3-0.3,0.7-0.3,1.1v6.9c0,0.3,0,0.6,0.1,0.8l2.9,8.4c0.5,1.5,1.9,2.5,3.5,2.5h9c1.6,0,3-1,3.5-2.5l2.9-8.4
		c0.1-0.3,0.1-0.5,0.1-0.8V156C57.1,155.1,56.6,154.3,55.8,153.9z M52.1,162.8l-2.5,7.2h-7.2l-2.5-7.2V160c4,1.1,8.2,1.1,12.2-0.2
		V162.8z"/>
	<path class="st7" d="M229.6,122.9c-0.6,0-1.1,0-1.6,0.1c-1.3,0.2-2.2,1.3-2.1,2.6c0,0.4,0,0.7,0,1.1v12.9c0,0.4,0,0.7,0,1.1
		c-0.1,1.3,0.8,2.4,2.1,2.6c5.6,0.9,10.9-2.9,11.8-8.5c0.9-5.6-2.9-10.9-8.5-11.8C230.7,123,230.1,122.9,229.6,122.9z M230.9,138.3
		v-10.2c2.8,0.7,4.5,3.6,3.8,6.4C234.2,136.4,232.8,137.8,230.9,138.3L230.9,138.3z"/>
	<path class="st7" d="M193.6,126.8c0-0.4,0-0.7,0-1.1c0.1-1.3-0.8-2.4-2.1-2.6c-5.6-0.9-10.9,2.9-11.8,8.5
		c-0.9,5.6,2.9,10.9,8.5,11.8c0.5,0.1,1.1,0.1,1.6,0.1c0.6,0,1.1,0,1.6-0.1c1.3-0.2,2.2-1.3,2.1-2.6c0-0.4,0-0.7,0-1.1V126.8z
		 M188.6,138.3c-2.8-0.7-4.5-3.6-3.8-6.4c0.5-1.9,1.9-3.3,3.8-3.8V138.3z"/>
	<path class="st7" d="M230.9,122.7c0-1.9-1.5-3.4-3.4-3.4c-7-0.2-10.5-3-11.7-4.1c-1.4-1.4-3.6-1.3-4.9,0c-0.1,0.1-0.2,0.2-0.3,0.3
		c-5.8,7.3-14.4,6.5-17.8,5.8c-1.9-0.4-3.7,0.8-4.1,2.7c0,0.2-0.1,0.5-0.1,0.7v15c0,11.7,9.5,21.2,21.2,21.2
		c11.7,0,21.1-9.5,21.1-21.2l0,0V123L230.9,122.7z M225.9,139.6c0,8.9-7.2,16.2-16.2,16.1c-8.9,0-16.1-7.2-16.1-16.1v-13.2
		c4.4,0.6,13.3,0.6,19.9-6.7c2.2,1.8,6.2,4,12.4,4.4L225.9,139.6z"/>
	<path class="st7" d="M224.3,100.4c-1.6,0-3.2,0.3-4.7,0.9c-2.5-2.9-6.1-4.5-9.9-4.6h-5.5c-12,0-21.7,9.7-21.8,21.8v8.6
		c0,1.4,1.1,2.5,2.5,2.5c0.6,0,1.1-0.2,1.6-0.5c1.1-0.9,2.6-1.3,4.1-1.1c1.2,0.2,2.3-0.5,2.7-1.6c4.4,0.6,13.3,0.7,20-6.6
		c2.2,1.8,6.2,4,12.4,4.4v1.3c0,1.4,1.1,2.5,2.5,2.5c0.1,0,0.3,0,0.4,0c1.6-0.3,3.3,0.3,4.5,1.4c1,1,2.6,0.9,3.5-0.1
		c0.4-0.5,0.7-1.1,0.7-1.7v-14C237.5,106.3,231.6,100.4,224.3,100.4z M232.5,123.3c-0.5-0.2-1.1-0.3-1.6-0.3v-0.3
		c0-1.9-1.5-3.4-3.4-3.4c-7-0.2-10.5-3-11.7-4.1c-1.4-1.4-3.6-1.3-4.9,0c-0.1,0.1-0.2,0.2-0.3,0.3c-5.8,7.3-14.4,6.5-17.8,5.8
		c-1.5-0.3-3.1,0.4-3.8,1.7c-0.5,0-1,0.1-1.5,0.2v-4.7c0-9.2,7.5-16.7,16.8-16.8h5.5c2.9,0,5.5,1.5,7,4c0.7,1.2,2.2,1.6,3.4,0.9
		c0,0,0,0,0,0c3.8-2.3,8.8-1.1,11.1,2.8c0.8,1.3,1.2,2.7,1.2,4.2L232.5,123.3z"/>
	<path class="st7" d="M212.5,182.2c0-0.2-0.1-0.3-0.1-0.5c-0.1-0.2-0.1-0.3-0.2-0.4c-0.1-0.1-0.2-0.3-0.3-0.4
		c-0.1-0.1-0.2-0.2-0.4-0.3c-0.3-0.2-0.6-0.3-0.9-0.4c-1.4-0.3-2.7,0.6-2.9,2c0,0.2,0,0.3,0,0.5c0,0.2,0,0.3,0.1,0.5
		c0,0.2,0.1,0.3,0.1,0.5c0.1,0.2,0.1,0.3,0.2,0.4c0.1,0.1,0.2,0.3,0.3,0.4c0.5,0.5,1.1,0.7,1.8,0.7c0.2,0,0.3,0,0.5-0.1
		c0.3-0.1,0.6-0.2,0.9-0.4c0.1-0.1,0.3-0.2,0.4-0.3c0.1-0.1,0.2-0.2,0.3-0.4c0.1-0.1,0.2-0.3,0.2-0.4c0.1-0.2,0.1-0.3,0.1-0.5
		C212.5,182.9,212.5,182.5,212.5,182.2z"/>
	<path class="st7" d="M211.8,190.9c-0.1-0.1-0.2-0.2-0.4-0.3c-0.3-0.2-0.6-0.3-0.9-0.4c-1.4-0.3-2.7,0.6-2.9,2
		c-0.3,1.4,0.6,2.7,2,2.9c0.2,0,0.3,0.1,0.5,0c0.2,0,0.3,0,0.5-0.1c0.2,0,0.3-0.1,0.5-0.1c0.1-0.1,0.3-0.1,0.4-0.2
		c0.1-0.1,0.3-0.2,0.4-0.3c0.1-0.1,0.2-0.2,0.3-0.4c0.1-0.1,0.2-0.3,0.2-0.4c0.1-0.2,0.1-0.3,0.1-0.5c0-0.2,0-0.3,0.1-0.5
		C212.5,192,212.3,191.4,211.8,190.9z"/>
	<path class="st7" d="M212.5,202.1c0-0.2-0.1-0.3-0.1-0.5c-0.1-0.2-0.1-0.3-0.2-0.4c-0.1-0.1-0.2-0.3-0.3-0.4
		c-0.1-0.1-0.2-0.2-0.4-0.3c-0.1-0.1-0.3-0.2-0.4-0.2c-0.2-0.1-0.3-0.1-0.5-0.1c-0.8-0.2-1.7,0.1-2.3,0.7c-0.1,0.1-0.2,0.2-0.3,0.4
		c-0.1,0.1-0.2,0.3-0.2,0.4c-0.1,0.1-0.1,0.3-0.1,0.5c0,0.2,0,0.3-0.1,0.5c0,0.7,0.3,1.3,0.7,1.8c0.5,0.5,1.1,0.7,1.8,0.7
		c0.2,0,0.3,0,0.5-0.1c0.3-0.1,0.6-0.2,0.9-0.4c0.1-0.1,0.3-0.2,0.4-0.3c0.1-0.1,0.2-0.2,0.3-0.4c0.2-0.3,0.3-0.6,0.4-0.9
		c0-0.2,0-0.3,0.1-0.5C212.5,202.5,212.5,202.3,212.5,202.1z"/>
	<path class="st7" d="M212.5,212.1c0-0.2-0.1-0.3-0.1-0.5c-0.1-0.2-0.1-0.3-0.2-0.4c-0.1-0.1-0.2-0.3-0.3-0.4
		c-0.1-0.1-0.2-0.2-0.4-0.3c-0.3-0.2-0.6-0.3-0.9-0.4c-1.3-0.3-2.7,0.6-2.9,1.9c0,0.2-0.1,0.3-0.1,0.5c0,0.2,0,0.3,0.1,0.5
		c0,0.2,0.1,0.3,0.1,0.5c0.1,0.2,0.1,0.3,0.2,0.4c0.1,0.1,0.2,0.3,0.3,0.4c0.5,0.5,1.1,0.7,1.8,0.7c0.2,0,0.3,0,0.5-0.1
		c0.2,0,0.3-0.1,0.5-0.1c0.1-0.1,0.3-0.1,0.4-0.2c0.1-0.1,0.3-0.2,0.4-0.3c0.1-0.1,0.2-0.2,0.3-0.4c0.1-0.1,0.2-0.3,0.2-0.4
		c0.1-0.1,0.1-0.3,0.1-0.5c0-0.2,0-0.3,0.1-0.5C212.5,212.4,212.5,212.3,212.5,212.1z"/>
	<path class="st7" d="M231.8,193.3c-1.4,0-2.5,1.1-2.5,2.5v28.1c0,1.4,1.1,2.5,2.5,2.5s2.5-1.1,2.5-2.5v-28.1
		C234.3,194.4,233.2,193.3,231.8,193.3z"/>
	<path class="st7" d="M187.7,193.3c-1.4,0-2.5,1.1-2.5,2.5v28.1c0,1.4,1.1,2.5,2.5,2.5s2.5-1.1,2.5-2.5v-28.1
		C190.2,194.4,189,193.3,187.7,193.3z"/>
	<path class="st7" d="M219.9,153.9c-0.8-0.5-1.7-0.5-2.5,0c-2.4,1.3-5,1.9-7.7,2c-2.5,0-5-0.6-7.2-1.7c-1.2-0.6-2.7-0.1-3.4,1.1
		c-0.2,0.3-0.3,0.7-0.3,1.1v6.9c0,0.3,0,0.6,0.1,0.8l2.9,8.4c0.5,1.5,1.9,2.5,3.5,2.5h9c1.6,0,3-1,3.5-2.5l2.9-8.4
		c0.1-0.3,0.1-0.5,0.1-0.8V156C221.1,155.1,220.6,154.3,219.9,153.9z M216.1,162.8l-2.5,7.2h-7.2l-2.5-7.2V160
		c4,1.1,8.2,1.1,12.2-0.2L216.1,162.8z"/>
	<path class="st7" d="M181.9,246.8L181.9,246.8l-3-53.1c-0.3-5.3-4-9.7-9.1-11l-18.5-4.7l-11.1-5.4c-1.2-0.6-2.7-0.1-3.3,1.1
		c0,0.1-0.1,0.2-0.1,0.3l-3.6,10.3h-10.4l-3.6-10.3c-0.5-1.3-1.9-2-3.2-1.5c-0.1,0-0.2,0.1-0.3,0.1l-11.1,5.4l-18.5,4.7
		c-5.1,1.3-8.8,5.7-9.1,11l-3,53.1c-0.3,4.8,3.4,8.9,8.2,9.2c0.2,0,0.3,0,0.5,0h90.3c4.8,0,8.7-3.9,8.7-8.7
		C181.9,247.1,181.9,247,181.9,246.8L181.9,246.8z M175.9,249.8c-0.7,0.7-1.7,1.2-2.7,1.2H82.8c-2.1,0-3.7-1.7-3.7-3.7
		c0-0.1,0-0.1,0-0.2l3-53.1c0.2-3.1,2.3-5.7,5.3-6.4l18.8-4.7c0.2,0,0.3-0.1,0.5-0.2l8.8-4.3l2.9,8.3c0.6,1.6,2.1,2.7,3.9,2.7h11.7
		c1.7,0,3.3-1.1,3.9-2.7l2.9-8.3l8.8,4.3c0.2,0.1,0.3,0.1,0.5,0.2l18.8,4.7c3,0.7,5.1,3.4,5.3,6.4l3,53.1
		C176.9,248.1,176.6,249.1,175.9,249.8L175.9,249.8z"/>
	<path class="st7" d="M85.8,177.7c-0.2-4.3-3.2-8-7.4-9l-14.2-3.6l-8.5-4.2c-1.2-0.6-2.7-0.1-3.3,1.1c0,0.1-0.1,0.2-0.1,0.3
		l-2.6,7.6h-7.2l-2.6-7.6c-0.5-1.3-1.9-2-3.2-1.5c-0.1,0-0.2,0.1-0.3,0.1l-8.5,4.2l-14.2,3.6c-4.2,1-7.2,4.7-7.4,9L3.9,218
		c-0.2,4.4,3.1,8.2,7.5,8.4c0.1,0,0.3,0,0.4,0h66.1c1.3,0,2.4-1,2.5-2.4l1.7-30c0.1-2.2,1.3-4.2,3.1-5.4c0.7-0.5,1.1-1.3,1.1-2.2
		L85.8,177.7z M77.1,193.7l-1.5,27.7H11.9c-1.6,0-3-1.3-3-3c0-0.1,0-0.1,0-0.2l2.2-40.2c0.1-2.1,1.6-3.9,3.7-4.4l14.5-3.6
		c0.2,0,0.3-0.1,0.5-0.2l6.2-3l2,5.8c0.5,1.5,1.9,2.5,3.5,2.5h9c1.6,0,3-1,3.5-2.5l2-5.8l6.2,3c0.2,0.1,0.3,0.1,0.5,0.2l14.5,3.6
		c2.1,0.5,3.6,2.3,3.7,4.4l0.4,7.3C78.8,187.4,77.3,190.5,77.1,193.7z"/>
	<path class="st7" d="M252.1,218l-2.2-40.2c-0.2-4.3-3.2-8-7.4-9l-14.2-3.6l-8.5-4.2c-1.2-0.6-2.7-0.1-3.3,1.1
		c0,0.1-0.1,0.2-0.1,0.3l-2.6,7.6h-7.2l-2.6-7.6c-0.5-1.3-1.9-2-3.2-1.5c-0.1,0-0.2,0.1-0.3,0.1l-8.5,4.2l-14.2,3.6
		c-4.2,1-7.2,4.7-7.4,9l-0.5,8.6c0,0.9,0.4,1.7,1.1,2.2c1.8,1.2,3,3.2,3.1,5.4l1.7,30c0.1,1.3,1.2,2.4,2.5,2.4h66.1c4.4,0,8-3.6,8-8
		C252.1,218.3,252.1,218.1,252.1,218L252.1,218z M246.3,220.5c-0.6,0.6-1.3,0.9-2.2,0.9h-63.7l-1.5-27.7c-0.2-3.2-1.7-6.3-4.1-8.4
		l0.4-7.3c0.1-2.1,1.6-3.9,3.7-4.4l14.5-3.6c0.2,0,0.3-0.1,0.5-0.2l6.2-3l2,5.8c0.5,1.5,1.9,2.5,3.5,2.5h9c1.6,0,3-1,3.5-2.5l2-5.8
		l6.2,3c0.2,0.1,0.3,0.1,0.5,0.2l14.5,3.6c2.1,0.5,3.6,2.3,3.7,4.4l2.2,40.2C247.2,219.1,246.9,219.9,246.3,220.5z"/>
	<path class="st7" d="M153.4,123.4c-0.7,0-1.3,0.1-2,0.2c-1.3,0.2-2.2,1.3-2.1,2.6c0,0.5,0.1,1,0.1,1.5v16.7c0,0.5,0,1-0.1,1.5
		c-0.1,1.3,0.8,2.4,2.1,2.6c6.9,1.1,13.3-3.6,14.4-10.4s-3.6-13.3-10.4-14.4C154.7,123.4,154,123.4,153.4,123.4L153.4,123.4z
		 M154.3,143.5v-15.1c4.2,0.5,7.1,4.3,6.6,8.5C160.5,140.3,157.8,143,154.3,143.5z"/>
	<path class="st7" d="M106,127.6c0-0.5,0-1,0.1-1.5c0.1-1.3-0.8-2.4-2.1-2.6c-6.9-1.1-13.3,3.6-14.4,10.4
		c-1.1,6.9,3.6,13.3,10.4,14.4c0.7,0.1,1.3,0.2,2,0.2c0.7,0,1.3-0.1,2-0.2c1.3-0.2,2.2-1.3,2.1-2.6c0-0.5-0.1-1-0.1-1.5L106,127.6z
		 M101,143.5c-4.2-0.5-7.1-4.3-6.6-8.5c0.4-3.4,3.1-6.2,6.6-6.6V143.5z"/>
	<path class="st7" d="M154.3,122.3c0-2-1.7-3.7-3.7-3.7c-9.3-0.3-14.1-4-15.7-5.6c-1.5-1.5-3.9-1.4-5.4,0c-0.1,0.1-0.2,0.2-0.3,0.3
		c-7.8,9.8-19.2,8.7-23.8,7.7c-2-0.4-4.1,0.9-4.5,2.9c-0.1,0.3-0.1,0.5-0.1,0.8v19.4c0,14.7,11.9,26.7,26.7,26.7
		s26.7-11.9,26.7-26.7v-21.5L154.3,122.3z M149.3,144.3c0,12-9.7,21.7-21.7,21.7s-21.7-9.7-21.7-21.7l0,0v-18
		c5.3,0.8,17.6,1.4,26.4-8.8c2.8,2.4,8.1,5.6,16.9,6.1V144.3z"/>
	<path class="st7" d="M146.6,94.2c-2.1,0-4.3,0.4-6.3,1.3c-3.1-3.8-7.7-6-12.6-6.1h-7.1c-15.2,0-27.4,12.3-27.5,27.5v11.2
		c0,1.4,1.1,2.5,2.5,2.5c0.6,0,1.1-0.2,1.6-0.5c1.6-1.4,3.8-1.9,5.9-1.6c1.4,0.2,2.6-0.7,2.9-2.1c0,0,0-0.1,0-0.1
		c5.3,0.8,17.6,1.4,26.5-8.8c2.8,2.4,8.1,5.6,16.9,6.1v2.4c0,1.4,1.1,2.5,2.5,2.5c0.1,0,0.3,0,0.4,0c0.4-0.1,0.8-0.1,1.2-0.1
		c2,0,3.9,0.8,5.3,2.1c1,1,2.6,0.9,3.5-0.1c0.4-0.5,0.7-1.1,0.7-1.7v-18.2C162.9,101.5,155.6,94.2,146.6,94.2z M157.9,124.2
		c-1.1-0.4-2.3-0.7-3.6-0.8v-1.1c0-2-1.7-3.7-3.7-3.7c-9.3-0.3-14.1-4-15.7-5.6c-1.5-1.5-3.9-1.4-5.4,0c-0.1,0.1-0.2,0.2-0.3,0.3
		c-7.8,9.8-19.2,8.7-23.8,7.7c-1.8-0.4-3.6,0.6-4.3,2.2c-1.1,0.1-2.1,0.3-3.1,0.6v-7.1c0-12.4,10.1-22.4,22.5-22.5h7.1
		c4,0,7.7,2.1,9.7,5.5c0.7,1.2,2.2,1.6,3.4,0.9c0,0,0,0,0,0c5.3-3.2,12.3-1.5,15.5,3.8c1.1,1.8,1.6,3.8,1.6,5.9L157.9,124.2z"/>
	<path class="st7" d="M129.8,198.4c-1-0.9-2.5-0.9-3.5,0c-1,1-1,2.6,0,3.5c1,1,2.6,1,3.5,0C130.7,200.9,130.7,199.3,129.8,198.4z"/>
	<path class="st7" d="M129.8,211.3c-1-0.9-2.5-0.9-3.5,0c-0.5,0.5-0.7,1.1-0.7,1.8c0,0.2,0,0.3,0.1,0.5c0,0.2,0.1,0.3,0.1,0.5
		c0.1,0.1,0.1,0.3,0.2,0.4c0.1,0.1,0.2,0.3,0.3,0.4c1,1,2.6,1,3.5,0c0.1-0.1,0.2-0.2,0.3-0.4c0.2-0.3,0.3-0.6,0.4-0.9
		c0-0.2,0-0.3,0.1-0.5C130.5,212.4,130.2,211.7,129.8,211.3z"/>
	<path class="st7" d="M129.8,224.2c-1-0.9-2.5-0.9-3.5,0c-1,1-1,2.6,0,3.5c1,1,2.6,1,3.5,0C130.7,226.8,130.7,225.2,129.8,224.2z"/>
	<path class="st7" d="M129.8,237.1c-1-0.9-2.5-0.9-3.5,0c-1,1-1,2.6,0,3.5c1,1,2.6,1,3.5,0C130.7,239.7,130.7,238.1,129.8,237.1z"/>
	<path class="st7" d="M156.3,214.6c-1.4,0-2.5,1.1-2.5,2.5v36.4c0,1.4,1.1,2.5,2.5,2.5s2.5-1.1,2.5-2.5v-36.4
		C158.8,215.7,157.7,214.6,156.3,214.6z"/>
	<path class="st7" d="M99,214.6c-1.4,0-2.5,1.1-2.5,2.5v36.4c0,1.4,1.1,2.5,2.5,2.5s2.5-1.1,2.5-2.5v-36.4
		C101.5,215.7,100.4,214.6,99,214.6z"/>
	<path class="st7" d="M140.4,163.4c-0.8-0.5-1.7-0.5-2.5,0c-3.2,1.7-6.7,2.6-10.3,2.6c-3.4,0-6.7-0.8-9.7-2.3
		c-1.2-0.6-2.7-0.1-3.4,1.1c-0.2,0.3-0.3,0.7-0.3,1.1v8.9c0,0.3,0,0.6,0.1,0.8l3.8,10.9c0.6,1.6,2.1,2.7,3.9,2.7h11.7
		c1.7,0,3.3-1.1,3.9-2.7l3.8-10.9c0.1-0.3,0.1-0.5,0.1-0.8v-9.3C141.6,164.6,141.2,163.8,140.4,163.4z M136.6,174.4l-3.5,9.9h-10.4
		l-3.5-9.9v-4.8c5.6,1.8,11.7,1.7,17.3-0.2L136.6,174.4z"/>
	<path class="st7" d="M162.1,0H93.9C83.4,0,74.8,8.6,74.8,19.1v29.1c0,10.6,8.6,19.1,19.1,19.1h17.6c1.2,0,2.3,0.6,3,1.6l9.9,15.1
		c1.3,1.9,3.9,2.5,5.9,1.2c0.5-0.3,0.9-0.7,1.2-1.2l9.9-15.1c0.7-1,1.8-1.6,3-1.6h17.6c10.6,0,19.1-8.6,19.1-19.1V19.1
		C181.2,8.6,172.6,0,162.1,0z M176.2,48.2c0,7.8-6.3,14.1-14.1,14.1h-17.6c-2.9,0-5.6,1.4-7.2,3.9L128,80.3l-9.3-14.1
		c-1.6-2.4-4.3-3.9-7.2-3.9H93.9c-7.8,0-14.1-6.3-14.1-14.1V19.1C79.8,11.3,86.1,5,93.9,5h68.1c7.8,0,14.1,6.3,14.1,14.1V48.2z"/>
	<path class="st7" d="M234.9,30.2h-49.8c-2.7,0-5.4,0.8-7.8,2.2c-0.7,0.5-1.2,1.3-1.2,2.1v13.6c0,4.1-1.8,8-4.9,10.6
		c-0.5,0.5-0.9,1.2-0.9,1.9v5.4c0,8.1,6.6,14.6,14.6,14.7H198c0.7,0,1.3,0.3,1.6,0.9l7.3,11c1.1,1.7,3.5,2.2,5.2,1.1
		c0.4-0.3,0.8-0.6,1.1-1.1l7.3-11c0.4-0.5,1-0.9,1.6-0.9h12.9c8.1,0,14.6-6.6,14.6-14.7V44.9C249.5,36.8,243,30.3,234.9,30.2z
		 M244.5,66.1c0,5.3-4.3,9.6-9.6,9.7H222c-2.3,0-4.5,1.2-5.8,3.1l-6.2,9.4l-6.2-9.4c-1.3-2-3.5-3.1-5.8-3.1h-12.9
		c-5.3,0-9.6-4.3-9.6-9.7v-4.3c3.7-3.6,5.7-8.5,5.7-13.6V36.1c1.2-0.6,2.6-0.9,3.9-0.9h49.8c5.3,0,9.6,4.3,9.6,9.7V66.1z"/>
	<path class="st7" d="M84.7,58.9c-3.1-2.7-4.9-6.6-4.9-10.6V34.6c0-0.9-0.4-1.7-1.2-2.1c-2.3-1.5-5-2.2-7.8-2.2H21.1
		c-8.1,0-14.6,6.6-14.6,14.6v21.3c0,8.1,6.6,14.6,14.6,14.7H34c0.7,0,1.3,0.3,1.6,0.9l7.3,11c1.1,1.7,3.5,2.2,5.2,1.1
		c0.4-0.3,0.8-0.6,1.1-1.1l7.3-11c0.4-0.5,1-0.9,1.6-0.9h12.9c8.1,0,14.6-6.6,14.7-14.7v-5.4C85.5,60,85.2,59.3,84.7,58.9z
		 M80.5,66.1c0,5.3-4.3,9.6-9.7,9.7H58c-2.3,0-4.5,1.2-5.8,3.1L46,88.3l-6.2-9.4c-1.3-2-3.5-3.1-5.8-3.1H21.1
		c-5.3,0-9.6-4.3-9.6-9.7V44.9c0-5.3,4.3-9.6,9.6-9.7h49.8c1.4,0,2.7,0.3,3.9,0.9v12.1c0,5.1,2.1,10,5.7,13.6L80.5,66.1z"/>
	<path class="st7" d="M154.8,17.9L154.8,17.9l-54.5,0.2c-1.4,0-2.5,1.1-2.5,2.5s1.1,2.5,2.5,2.5h0l54.5-0.2c1.4,0,2.5-1.1,2.5-2.5
		C157.3,19,156.2,17.9,154.8,17.9z"/>
	<path class="st7" d="M154.9,31.1L154.9,31.1l-54.5,0.2c-1.4,0-2.5,1.1-2.5,2.5s1.1,2.5,2.5,2.5h0l54.5-0.2c1.4,0,2.5-1.1,2.5-2.5
		C157.4,32.2,156.3,31.1,154.9,31.1L154.9,31.1z"/>
	<path class="st7" d="M154.9,44.3L154.9,44.3l-54.5,0.2c-1.4,0-2.5,1.1-2.5,2.5s1.1,2.5,2.5,2.5h0l54.5-0.2c1.4,0,2.5-1.1,2.5-2.5
		C157.4,45.5,156.3,44.3,154.9,44.3z"/>
	<path class="st5" d="M87,96.5h-1.8v-1.8c0-1.4-1.1-2.5-2.5-2.5s-2.5,1.1-2.5,2.5v1.8h-1.8c-1.4,0-2.5,1.1-2.5,2.5s1.1,2.5,2.5,2.5
		h1.8v1.8c0,1.4,1.1,2.5,2.5,2.5s2.5-1.1,2.5-2.5v-1.8H87c1.4,0,2.5-1.1,2.5-2.5S88.4,96.5,87,96.5L87,96.5z"/>
</g>
</svg>
