<?xml version="1.0" encoding="utf-8"?>
<!-- Generator: Adobe Illustrator 24.0.0, SVG Export Plug-In . SVG Version: 6.00 Build 0)  -->
<svg version="1.1" id="Layer_2" xmlns="http://www.w3.org/2000/svg" xmlns:xlink="http://www.w3.org/1999/xlink" x="0px" y="0px"
	 viewBox="0 0 512 512" enable-background="new 0 0 512 512" xml:space="preserve">
<path fill="#80D6FB" d="M362,10v40h71.715L319.842,163.873C287.276,137.693,245.939,122,201,122C96.233,122,11,207.233,11,312
	s85.233,190,190,190s190-85.233,190-190c0-45.449-16.048-87.217-42.765-119.95L462,78.285V150h40V10H362z M201,462
	c-82.71,0-150-67.29-150-150s67.29-150,150-150c82.71,0,150,67.29,150,150S283.71,462,201,462z"/>
</svg>
