<?xml version="1.0" encoding="utf-8"?>
<!-- Generator: Adobe Illustrator 21.0.0, SVG Export Plug-In . SVG Version: 6.00 Build 0)  -->
<svg version="1.1" id="Layer_1" xmlns="http://www.w3.org/2000/svg" xmlns:xlink="http://www.w3.org/1999/xlink" x="0px" y="0px"
	 viewBox="0 0 128 128" style="enable-background:new 0 0 128 128;" xml:space="preserve">
<style type="text/css">
	.st0{fill:#CFF1FB;}
	.st1{fill:#91DEF5;}
	.st2{fill:#F6F7F7;}
	.st3{fill:#FFCFB8;}
	.st4{fill:#FFA77B;}
	.st5{fill:#E9EAEB;}
	.st6{fill:#746887;}
	.st7{fill:#F98770;}
	.st8{fill:#9B9B9B;}
	.st9{fill:#FFDDCF;}
	.st10{fill:#FFFFFF;}
	.st11{fill:#B7B7B7;}
	.st12{fill:#FFBC99;}
	.st13{fill:#DBDCDE;}
	.st14{fill:#FECFBA;}
	.st15{fill:#D0F1FA;}
	.st16{fill:#FDA77F;}
	.st17{fill:#94DEF4;}
</style>
<g>
	<g>
		<path class="st2" d="M108.58,44.469H84.035C77.188,59.78,64,67.55,64,67.55s-13.188-7.77-20.035-23.081H19.42
			c-1.615,0-2.923,1.312-2.923,2.93v76.172c0,1.618,1.309,2.93,2.923,2.93h89.16c1.615,0,2.923-1.312,2.923-2.93V47.398
			C111.503,45.78,110.195,44.469,108.58,44.469z"/>
		<path class="st4" d="M108.58,44.469H84.035C77.188,59.78,64,67.55,64,67.55s-13.188-7.77-20.035-23.081H19.42
			c-1.615,0-2.923,1.312-2.923,2.93v32.167h95.007V47.398C111.503,45.78,110.195,44.469,108.58,44.469z"/>
		<path class="st3" d="M61.625,94.132H29.323c-1.574,0-2.85,1.279-2.85,2.856v1.899c0,1.578,1.276,2.856,2.85,2.856h32.302
			c1.574,0,2.85-1.279,2.85-2.856v-1.899C64.475,95.411,63.199,94.132,61.625,94.132z"/>
		<path class="st3" d="M61.625,109.361H29.323c-1.574,0-2.85,1.279-2.85,2.856v1.899c0,1.578,1.276,2.856,2.85,2.856h32.302
			c1.574,0,2.85-1.279,2.85-2.856v-1.899C64.475,110.64,63.199,109.361,61.625,109.361z"/>
		<path class="st0" d="M64.031,1.5c-13.286,0-24.092,9.928-24.092,24.114C39.939,53.396,64,67.55,64,67.55
			s24.061-14.153,24.061-41.936C88.061,11.428,77.317,1.5,64.031,1.5z"/>
		<ellipse class="st2" cx="64" cy="27.71" rx="11.507" ry="11.533"/>
	</g>
	<g>
		<path class="st7" d="M108.58,42.969H84.035c-0.59,0-1.124,0.347-1.366,0.887C77.04,56.444,66.853,63.872,64,65.771
			c-2.853-1.899-13.039-9.326-18.67-21.915c-0.241-0.54-0.776-0.887-1.366-0.887H19.42c-2.437,0-4.42,1.987-4.42,4.43v32.167
			c0,0.828,0.67,1.5,1.497,1.5h9c0.827,0,1.497-0.672,1.497-1.5s-0.67-1.5-1.497-1.5h-7.503V47.398c0-0.789,0.64-1.43,1.427-1.43
			h23.586C50.06,60.95,62.697,68.522,63.241,68.843c0.469,0.275,1.048,0.275,1.517,0c0.544-0.32,13.182-7.893,20.235-22.874h23.586
			c0.786,0,1.427,0.641,1.427,1.43v30.667H33.181c-0.827,0-1.497,0.672-1.497,1.5s0.67,1.5,1.497,1.5h78.322
			c0.826,0,1.497-0.672,1.497-1.5V47.398C113,44.956,111.017,42.969,108.58,42.969z"/>
		<path class="st6" d="M108.58,42.969H84.035c-0.59,0-1.124,0.347-1.366,0.887C77.04,56.444,66.853,63.872,64,65.771
			c-2.853-1.899-13.039-9.326-18.67-21.915c-0.241-0.54-0.776-0.887-1.366-0.887H19.42c-2.437,0-4.42,1.987-4.42,4.43v76.172
			c0,2.442,1.983,4.43,4.42,4.43h89.16c2.437,0,4.42-1.987,4.42-4.43v-8.244c0-0.828-0.67-1.5-1.497-1.5
			c-0.826,0-1.497,0.672-1.497,1.5v8.244c0,0.788-0.64,1.43-1.427,1.43H19.42c-0.786,0-1.427-0.642-1.427-1.43V47.398
			c0-0.789,0.64-1.43,1.427-1.43h23.586C50.06,60.95,62.697,68.522,63.241,68.843c0.469,0.275,1.048,0.275,1.517,0
			c0.544-0.32,13.182-7.893,20.235-22.874h23.586c0.786,0,1.427,0.641,1.427,1.43v59.987c0,0.828,0.67,1.5,1.497,1.5
			c0.826,0,1.497-0.672,1.497-1.5V47.398C113,44.956,111.017,42.969,108.58,42.969z"/>
		<path class="st6" d="M61.625,92.633H29.323c-2.397,0-4.347,1.954-4.347,4.356v1.898c0,2.402,1.95,4.356,4.347,4.356h32.302
			c2.397,0,4.347-1.954,4.347-4.356v-1.898C65.972,94.587,64.022,92.633,61.625,92.633z M62.978,98.888
			c0,0.748-0.607,1.356-1.353,1.356H29.323c-0.746,0-1.353-0.608-1.353-1.356v-1.898c0-0.748,0.607-1.356,1.353-1.356h32.302
			c0.746,0,1.353,0.608,1.353,1.356V98.888z"/>
		<path class="st6" d="M61.625,107.861H29.323c-2.397,0-4.347,1.954-4.347,4.356v1.898c0,2.402,1.95,4.356,4.347,4.356h32.302
			c2.397,0,4.347-1.954,4.347-4.356v-1.898C65.972,109.815,64.022,107.861,61.625,107.861z M62.978,114.116
			c0,0.748-0.607,1.356-1.353,1.356H29.323c-0.746,0-1.353-0.608-1.353-1.356v-1.898c0-0.748,0.607-1.356,1.353-1.356h32.302
			c0.746,0,1.353,0.608,1.353,1.356V114.116z"/>
		<path class="st6" d="M64.031,0C49.444,0,38.443,11.011,38.443,25.613c0,28.314,24.552,43.084,24.8,43.23
			c0.234,0.138,0.496,0.206,0.758,0.206s0.524-0.068,0.758-0.206c0.248-0.146,24.8-14.916,24.8-43.23
			C89.557,11.011,78.583,0,64.031,0z M63.999,65.771c-4.015-2.669-22.562-16.301-22.562-40.157C41.436,12.722,51.15,3,64.031,3
			c12.846,0,22.533,9.722,22.533,22.613C86.564,49.427,68.01,63.096,63.999,65.771z"/>
		<path class="st7" d="M68.178,15.376c-0.782-0.268-1.633,0.155-1.898,0.939c-0.265,0.784,0.154,1.636,0.937,1.902
			c4.062,1.381,6.793,5.196,6.793,9.494c0,5.532-4.49,10.032-10.01,10.032s-10.011-4.5-10.011-10.032
			c0-4.266,2.705-8.071,6.729-9.47c0.781-0.271,1.195-1.125,0.924-1.908s-1.125-1.199-1.904-0.926
			c-5.229,1.817-8.743,6.762-8.743,12.304c0,7.186,5.834,13.032,13.004,13.032c7.17,0,13.004-5.846,13.004-13.032
			C77.004,22.126,73.457,17.169,68.178,15.376z"/>
	</g>
</g>
<g>
</g>
</svg>
